<mxfile host="app.diagrams.net" modified="2024-05-26T21:40:43.191Z" agent="Mozilla/5.0 (Windows NT 10.0; Win64; x64) AppleWebKit/537.36 (KHTML, like Gecko) Chrome/122.0.0.0 YaBrowser/24.4.0.0 Safari/537.36" etag="jzggk3UeW_ptVMS_2LMp" version="24.4.8" type="device">
  <diagram name="Страница — 1" id="FkkG3m3m1GS8pLh8ePZW">
    <mxGraphModel dx="1050" dy="590" grid="1" gridSize="10" guides="1" tooltips="1" connect="1" arrows="1" fold="1" page="1" pageScale="1" pageWidth="827" pageHeight="1169" math="0" shadow="0">
      <root>
        <mxCell id="0" />
        <mxCell id="1" parent="0" />
        <mxCell id="W5h-r8ERIf5scDE-rp8l-3" value="" style="edgeStyle=orthogonalEdgeStyle;rounded=0;orthogonalLoop=1;jettySize=auto;html=1;" edge="1" parent="1" source="W5h-r8ERIf5scDE-rp8l-1" target="W5h-r8ERIf5scDE-rp8l-2">
          <mxGeometry relative="1" as="geometry" />
        </mxCell>
        <mxCell id="W5h-r8ERIf5scDE-rp8l-1" value="begin&lt;div&gt;SecondArrayWithIf&lt;br&gt;&lt;/div&gt;" style="rounded=1;whiteSpace=wrap;html=1;" vertex="1" parent="1">
          <mxGeometry x="370" y="40" width="110" height="50" as="geometry" />
        </mxCell>
        <mxCell id="W5h-r8ERIf5scDE-rp8l-5" value="" style="edgeStyle=orthogonalEdgeStyle;rounded=0;orthogonalLoop=1;jettySize=auto;html=1;" edge="1" parent="1" source="W5h-r8ERIf5scDE-rp8l-2" target="W5h-r8ERIf5scDE-rp8l-4">
          <mxGeometry relative="1" as="geometry" />
        </mxCell>
        <mxCell id="W5h-r8ERIf5scDE-rp8l-2" value="string[] array1&amp;nbsp;&lt;br&gt;string array2&lt;br&gt;int count = 0" style="shape=parallelogram;perimeter=parallelogramPerimeter;whiteSpace=wrap;html=1;fixedSize=1;" vertex="1" parent="1">
          <mxGeometry x="350" y="140" width="150" height="60" as="geometry" />
        </mxCell>
        <mxCell id="W5h-r8ERIf5scDE-rp8l-7" value="" style="edgeStyle=orthogonalEdgeStyle;rounded=0;orthogonalLoop=1;jettySize=auto;html=1;" edge="1" parent="1" source="W5h-r8ERIf5scDE-rp8l-4" target="W5h-r8ERIf5scDE-rp8l-6">
          <mxGeometry relative="1" as="geometry" />
        </mxCell>
        <mxCell id="W5h-r8ERIf5scDE-rp8l-4" value="&lt;div style=&quot;font-size: 20px; line-height: 27px;&quot;&gt;&lt;div&gt;&lt;h6&gt;&lt;font face=&quot;Helvetica&quot;&gt;&lt;span style=&quot;background-color: rgb(255, 255, 255);&quot;&gt;&lt;span style=&quot;font-weight: normal;&quot;&gt;for&lt;/span&gt;&lt;span style=&quot;font-weight: normal;&quot;&gt; (&lt;/span&gt;&lt;span style=&quot;font-weight: normal;&quot;&gt;int&lt;/span&gt;&lt;span style=&quot;font-weight: normal;&quot;&gt; &lt;/span&gt;&lt;span style=&quot;font-weight: normal;&quot;&gt;i&lt;/span&gt;&lt;span style=&quot;font-weight: normal;&quot;&gt; &lt;/span&gt;&lt;span style=&quot;font-weight: normal;&quot;&gt;=&lt;/span&gt;&lt;span style=&quot;font-weight: normal;&quot;&gt; &lt;/span&gt;&lt;span style=&quot;font-weight: normal;&quot;&gt;0&lt;/span&gt;&lt;span style=&quot;font-weight: normal;&quot;&gt;; &lt;/span&gt;&lt;span style=&quot;font-weight: normal;&quot;&gt;i&lt;/span&gt;&lt;span style=&quot;font-weight: normal;&quot;&gt; &lt;/span&gt;&lt;span style=&quot;font-weight: normal;&quot;&gt;&amp;lt;&lt;/span&gt;&lt;span style=&quot;font-weight: normal;&quot;&gt; &lt;/span&gt;&lt;span style=&quot;font-weight: normal;&quot;&gt;array1&lt;/span&gt;&lt;span style=&quot;font-weight: normal;&quot;&gt;.&lt;/span&gt;&lt;span style=&quot;font-weight: normal;&quot;&gt;Length&lt;/span&gt;&lt;span style=&quot;font-weight: normal;&quot;&gt;; &lt;/span&gt;&lt;span style=&quot;font-weight: normal;&quot;&gt;i&lt;/span&gt;&lt;span style=&quot;font-weight: normal;&quot;&gt;++&lt;/span&gt;&lt;span style=&quot;font-weight: normal;&quot;&gt;)&lt;/span&gt;&lt;/span&gt;&lt;/font&gt;&lt;/h6&gt;&lt;/div&gt;&lt;/div&gt;" style="shape=hexagon;perimeter=hexagonPerimeter2;whiteSpace=wrap;html=1;fixedSize=1;" vertex="1" parent="1">
          <mxGeometry x="265" y="250" width="320" height="60" as="geometry" />
        </mxCell>
        <mxCell id="W5h-r8ERIf5scDE-rp8l-10" value="" style="rounded=0;orthogonalLoop=1;jettySize=auto;html=1;endArrow=none;endFill=0;" edge="1" parent="1" source="W5h-r8ERIf5scDE-rp8l-6" target="W5h-r8ERIf5scDE-rp8l-8">
          <mxGeometry relative="1" as="geometry" />
        </mxCell>
        <mxCell id="W5h-r8ERIf5scDE-rp8l-17" value="" style="edgeStyle=orthogonalEdgeStyle;rounded=0;orthogonalLoop=1;jettySize=auto;html=1;endArrow=none;endFill=0;" edge="1" parent="1" source="W5h-r8ERIf5scDE-rp8l-6" target="W5h-r8ERIf5scDE-rp8l-16">
          <mxGeometry relative="1" as="geometry" />
        </mxCell>
        <mxCell id="W5h-r8ERIf5scDE-rp8l-6" value="&lt;div style=&quot;font-size: 20px; line-height: 27px;&quot;&gt;&lt;div&gt;&lt;h6&gt;&lt;font face=&quot;Helvetica&quot;&gt;&lt;span style=&quot;background-color: rgb(255, 255, 255);&quot;&gt;&lt;span style=&quot;font-weight: normal;&quot;&gt;if(array1[i].Length &amp;lt;= 3)&lt;/span&gt;&lt;/span&gt;&lt;/font&gt;&lt;/h6&gt;&lt;/div&gt;&lt;/div&gt;" style="rhombus;whiteSpace=wrap;html=1;strokeColor=default;fontFamily=Helvetica;fontSize=12;fontColor=#000000;fillColor=default;" vertex="1" parent="1">
          <mxGeometry x="320" y="360" width="210" height="80" as="geometry" />
        </mxCell>
        <mxCell id="W5h-r8ERIf5scDE-rp8l-13" value="" style="edgeStyle=orthogonalEdgeStyle;rounded=0;orthogonalLoop=1;jettySize=auto;html=1;" edge="1" parent="1" source="W5h-r8ERIf5scDE-rp8l-8" target="W5h-r8ERIf5scDE-rp8l-9">
          <mxGeometry relative="1" as="geometry" />
        </mxCell>
        <mxCell id="W5h-r8ERIf5scDE-rp8l-8" value="&lt;b&gt;YES&lt;/b&gt;" style="text;whiteSpace=wrap;html=1;" vertex="1" parent="1">
          <mxGeometry x="215" y="385" width="30" height="30" as="geometry" />
        </mxCell>
        <mxCell id="W5h-r8ERIf5scDE-rp8l-15" style="edgeStyle=orthogonalEdgeStyle;rounded=0;orthogonalLoop=1;jettySize=auto;html=1;entryX=0.653;entryY=0.928;entryDx=0;entryDy=0;entryPerimeter=0;" edge="1" parent="1">
          <mxGeometry relative="1" as="geometry">
            <mxPoint x="427.1300000000001" y="440" as="targetPoint" />
            <mxPoint x="290" y="515.76" as="sourcePoint" />
            <Array as="points">
              <mxPoint x="427" y="515.76" />
            </Array>
          </mxGeometry>
        </mxCell>
        <mxCell id="W5h-r8ERIf5scDE-rp8l-9" value="&lt;div style=&quot;font-size: 20px; line-height: 27px;&quot;&gt;&lt;div&gt;&lt;h6&gt;&lt;span style=&quot;background-color: rgb(255, 255, 255);&quot;&gt;&lt;font face=&quot;Helvetica&quot;&gt;&lt;span style=&quot;font-weight: normal;&quot;&gt;array2[count] = array1[i]; count++;&lt;/span&gt;&lt;/font&gt;&lt;/span&gt;&lt;/h6&gt;&lt;/div&gt;&lt;/div&gt;" style="rounded=0;whiteSpace=wrap;html=1;strokeColor=default;fontFamily=Helvetica;fontSize=12;fontColor=#000000;fillColor=default;" vertex="1" parent="1">
          <mxGeometry x="140" y="480" width="180" height="60" as="geometry" />
        </mxCell>
        <mxCell id="W5h-r8ERIf5scDE-rp8l-19" value="" style="edgeStyle=orthogonalEdgeStyle;rounded=0;orthogonalLoop=1;jettySize=auto;html=1;" edge="1" parent="1" source="W5h-r8ERIf5scDE-rp8l-16" target="W5h-r8ERIf5scDE-rp8l-18">
          <mxGeometry relative="1" as="geometry" />
        </mxCell>
        <mxCell id="W5h-r8ERIf5scDE-rp8l-16" value="&lt;b&gt;NO&lt;/b&gt;" style="text;whiteSpace=wrap;html=1;" vertex="1" parent="1">
          <mxGeometry x="610" y="385" width="20" height="30" as="geometry" />
        </mxCell>
        <mxCell id="W5h-r8ERIf5scDE-rp8l-21" value="" style="edgeStyle=orthogonalEdgeStyle;rounded=0;orthogonalLoop=1;jettySize=auto;html=1;" edge="1" parent="1" source="W5h-r8ERIf5scDE-rp8l-18" target="W5h-r8ERIf5scDE-rp8l-20">
          <mxGeometry relative="1" as="geometry" />
        </mxCell>
        <mxCell id="W5h-r8ERIf5scDE-rp8l-18" value="&lt;div style=&quot;font-size: 20px; line-height: 27px;&quot;&gt;&lt;div&gt;&lt;h6&gt;&lt;font face=&quot;Helvetica&quot;&gt;&lt;span style=&quot;background-color: rgb(255, 255, 255);&quot;&gt;&lt;span style=&quot;font-weight: normal;&quot;&gt;WriteArray (array2);&lt;/span&gt;&lt;/span&gt;&lt;/font&gt;&lt;/h6&gt;&lt;/div&gt;&lt;/div&gt;" style="shape=parallelogram;perimeter=parallelogramPerimeter;whiteSpace=wrap;html=1;fixedSize=1;strokeColor=default;fontFamily=Helvetica;fontSize=12;fontColor=#000000;fillColor=default;" vertex="1" parent="1">
          <mxGeometry x="520" y="480" width="200" height="50" as="geometry" />
        </mxCell>
        <mxCell id="W5h-r8ERIf5scDE-rp8l-20" value="end" style="rounded=1;whiteSpace=wrap;html=1;strokeColor=default;fontFamily=Helvetica;fontSize=12;fontColor=#000000;fillColor=default;" vertex="1" parent="1">
          <mxGeometry x="560" y="565" width="120" height="40" as="geometry" />
        </mxCell>
      </root>
    </mxGraphModel>
  </diagram>
</mxfile>
